PathFileType	3	(X/Y/Z)	D:\minhoCalibration\240510\subject4_KPNP\preferred\preferred16.trc
DataRate	CameraRate	NumFrames	NumMarkers	Units	OrigDataRate	OrigDataStartFrame	OrigNumFrames
200.0	200.0	34	10	mm	200.0	505	79	
Frame#	Time	Left_Ankle_Outer1			Left_Ankle_Inner1			Left_Knee_Outer1			Left_Knee_Inner1			Left_Wrist1			Right_Wrist1			Right_Knee_Inner1			Right_Knee_Outer1			Right_Ankle_Inner1			Right_Ankle_Outer1			
		X1	Y1	Z1	X2	Y2	Z2	X3	Y3	Z3	X4	Y4	Z4	X5	Y5	Z5	X6	Y6	Z6	X7	Y7	Z7	X8	Y8	Z8	X9	Y9	Z9	X10	Y10	Z10	
505	2.515	-401.55081	1183.235	271.01495	-435.95374	1084.6016	268.75192	-328.29495	1087.1846	757.6908	-363.56427	988.15332	734.73108	-470.12656	1222.337	1130.4321	-512.1156	922.3587	1351.0535	-384.14264	558.48334	1068.7021	-374.33255	565.84418	1179.6628	-576.38501	119.28706	1138.571	-552.92432	126.52488	1190.922
506	2.52	-414.23456	1178.575	267.16391	-435.53729	1076.6796	267.69583	-322.77289	1085.9363	754.75537	-357.84705	991.33936	733.22626	-473.1955	1222.915	1126.3354	-509.18347	922.58331	1347.5339	-384.58356	558.19537	1063.4196	-373.93512	565.91394	1173.7716	-576.81732	119.92343	1136.3853	-553.53705	127.45708	1188.5038
507	2.525	-425.39755	1173.5461	265.05655	-432.71002	1070.0388	264.20551	-319.2052	1083.104	755.05457	-355.383	996.00751	732.86401	-476.31964	1223.6984	1121.9758	-506.25043	922.67358	1343.3552	-384.70187	557.99738	1057.9602	-373.76944	566.04346	1167.7649	-578.08313	120.2252	1134.0278	-554.00464	128.42435	1185.9584
508	2.53	-432.35043	1167.8547	262.54364	-432.21729	1063.3223	259.76419	-319.86316	1079.6816	756.9176	-355.28687	1000.2455	731.96423	-480.47925	1223.9015	1117.5466	-503.33041	922.38898	1339.2101	-384.54291	557.95398	1052.229	-373.77756	566.25793	1161.5311	-578.25232	120.67472	1131.5984	-554.36902	129.23425	1183.5076
509	2.535	-438.33459	1160.7408	257.70459	-433.36859	1055.6096	256.51926	-324.65662	1079.9989	758.33954	-358.42313	1003.7393	731.18286	-485.0087	1223.7472	1113.2651	-500.59183	922.0332	1335.3645	-384.77634	558.125	1046.6268	-373.99496	566.90631	1155.5504	-579.18542	120.91972	1129.4011	-554.72675	130.04509	1181.01
510	2.54	-443.50186	1151.4307	251.46616	-434.01831	1046.6382	253.76564	-331.29376	1085.2562	758.41425	-361.69229	1007.1816	730.62524	-490.06799	1223.3472	1109.2424	-497.97461	921.28735	1331.5844	-384.87836	558.36224	1040.757	-374.57013	567.63568	1149.3732	-579.76678	121.30119	1127.2216	-555.15948	130.81961	1178.511
511	2.545	-447.77408	1140.8717	245.2733	-434.84494	1035.9098	251.08875	-339.11087	1093.5372	757.09967	-363.81528	1010.4754	730.37231	-495.62344	1222.7036	1105.6802	-495.66858	920.43439	1327.869	-385.7298	558.75909	1035.0103	-375.27048	568.3205	1143.4238	-580.72687	121.35	1124.9789	-555.54779	131.48668	1176.1865
512	2.55	-451.45236	1128.6208	239.85451	-434.09695	1024.4004	248.85684	-348.97772	1102.6543	754.09436	-365.62881	1014.042	730.12122	-500.98355	1222.2797	1102.3423	-493.73401	919.18048	1324.1917	-387.44864	558.7915	1029.4008	-376.09457	568.89581	1137.6914	-581.59186	121.51213	1122.991	-556.13428	132.08351	1174.0475
513	2.555	-455.54584	1115.2892	235.88623	-430.59036	1011.3497	244.69008	-361.15302	1112.1002	749.65149	-365.87149	1017.7969	729.46991	-506.18188	1221.6178	1099.4688	-492.01114	917.92792	1320.4969	-389.4743	559.05768	1023.7248	-376.91885	569.07831	1131.9132	-582.75287	121.92182	1121.387	-556.7677	132.63528	1171.9407
514	2.56	-458.19144	1098.8618	230.92696	-426.20645	1000.082	244.43486	-375.43805	1118.7681	744.63062	-366.67303	1021.832	728.23663	-511.5047	1221.4492	1096.6515	-490.44916	916.48151	1316.6018	-392.07501	559.23456	1018.3813	-377.67795	569.0575	1126.5089	-584.01392	121.84337	1119.765	-557.47589	133.05273	1170.2211
515	2.565	-461.73917	1082.3228	228.01859	-414.62665	990.13934	242.1846	-392.10052	1122.127	738.13776	-367.08365	1026.3457	726.31989	-516.7478	1221.1306	1094.3638	-488.94757	915.11389	1312.5093	-395.19019	559.30615	1013.3941	-378.38751	568.76569	1121.4154	-585.00403	121.79942	1118.6162	-558.20361	133.32854	1168.5731
516	2.57	-464.20111	1064.6934	225.34268	-404.91449	980.40698	240.68228	-406.53775	1122.6008	732.24799	-368.31412	1030.9697	723.68445	-521.80695	1220.8391	1092.537	-487.27963	913.81531	1308.132	-398.59262	559.38477	1008.7999	-378.78647	568.24451	1116.8177	-586.28571	121.68849	1117.5742	-558.8963	133.56021	1167.2732
517	2.575	-466.19968	1046.8624	223.05188	-398.12778	970.31256	239.90848	-419.11652	1121.1707	727.42261	-371.1734	1034.0607	720.55371	-526.50873	1221.0178	1091.0887	-485.0925	912.51434	1303.5319	-402.26382	559.32019	1004.657	-379.40781	567.31049	1112.1733	-587.2027	121.44218	1117.0295	-559.51215	133.57591	1166.5309
518	2.58	-467.8158	1029.3652	221.12221	-394.68243	958.62671	239.98	-429.04446	1118.9497	723.49719	-375.05658	1034.5271	717.55939	-531.44611	1221.1981	1089.8402	-482.47406	911.42426	1298.7954	-406.12646	558.77429	1000.9736	-379.71561	566.22357	1108.0184	-587.65814	121.01569	1117.3899	-559.79486	133.56784	1166.2227
519	2.585	-469.21704	1012.1223	219.51389	-393.69547	945.06628	240.83633	-437.21805	1115.8821	719.97339	-380.14545	1032.6486	715.15741	-535.99341	1221.4277	1088.8982	-479.37967	910.3241	1294.0909	-409.82455	558.47845	997.73004	-380.06546	565.03503	1104.0792	-588.46021	120.50154	1117.9708	-559.66486	133.43814	1166.4211
520	2.59	-470.7247	995.06293	218.54558	-393.86383	930.72986	242.17369	-444.08707	1111.8789	716.51318	-385.50015	1029.741	713.05469	-540.81189	1220.5936	1087.8807	-475.98004	909.12378	1289.5647	-413.14636	557.53693	994.7876	-380.33252	563.9483	1100.4534	-588.89777	120.17387	1119.5082	-559.09906	133.27017	1167.114
521	2.595	-472.70996	977.8623	218.23343	-395.09946	915.59692	243.86638	-449.73975	1106.9653	712.88861	-390.78683	1026.1205	711.14252	-545.3924	1219.4916	1086.9066	-472.35016	908.08093	1285.4719	-416.29651	556.65186	992.19214	-380.3938	563.06683	1097.3127	-588.52893	119.67999	1120.9581	-558.16821	133.02788	1168.394
522	2.6	-474.98624	959.70526	218.36101	-396.77365	899.35382	246.05005	-455.0416	1101.4987	708.97363	-395.92343	1021.9484	709.59106	-550.14868	1217.975	1085.7975	-468.45084	907.36536	1281.7513	-418.85117	555.6687	989.8056	-380.29459	562.37976	1094.3229	-588.479	119.3644	1123.246	-556.88696	132.81036	1169.9877
523	2.605	-478.29712	940.95148	219.3447	-399.06128	882.92883	248.7048	-460.39148	1095.5406	705.01062	-400.51364	1017.6279	708.45697	-554.78479	1216.0145	1084.478	-464.51517	906.99762	1278.3275	-421.08698	554.09845	987.77417	-380.10529	561.85822	1091.4103	-587.9903	118.94313	1125.7738	-555.40088	132.62796	1171.8428
524	2.61	-482.16949	920.99554	221.03648	-401.9697	865.35034	252.30417	-465.99902	1089.4492	701.18542	-405.21686	1012.9714	707.91888	-559.65381	1213.7747	1083.0125	-460.61292	907.03271	1275.2949	-422.36285	552.95605	985.93817	-379.83237	561.50671	1088.6295	-587.18201	118.35815	1128.5475	-553.84271	132.36021	1173.8103
525	2.615	-486.17764	900.28619	223.57771	-404.53879	847.84509	256.68594	-472.11557	1083.2092	698.11945	-409.51099	1008.2722	707.69885	-564.26532	1211.3378	1081.4763	-456.84442	907.30469	1272.6704	-424.19901	551.75482	983.92969	-379.40604	561.1106	1086.0336	-587.34412	117.99112	1130.9419	-552.20947	132.09431	1175.6851
526	2.62	-489.91193	878.6098	227.00151	-406.97076	829.4278	261.85867	-477.96524	1076.5946	695.15454	-413.65549	1003.2521	707.53424	-568.85126	1208.4957	1079.869	-453.2464	907.74408	1270.42	-425.45764	550.58881	982.45093	-378.85535	560.63696	1083.4957	-586.83643	117.52221	1133.1188	-550.76697	131.70522	1177.5759
527	2.625	-494.3374	856.88446	230.90239	-407.677	813.1701	267.1322	-484.8111	1069.975	692.82971	-417.5101	998.46729	707.28174	-573.46729	1205.5701	1078.3958	-449.94873	908.37878	1268.4906	-425.31934	549.11053	980.36432	-378.16107	559.97968	1081.0099	-585.1778	116.82412	1136.2798	-549.43738	131.21419	1179.2903
528	2.63	-499.76633	835.36072	235.77574	-409.64764	796.13281	271.50296	-490.9006	1062.8488	690.65271	-421.29694	993.22229	706.57867	-576.91351	1201.0013	1077.2164	-446.77542	908.81989	1266.7272	-426.36841	547.89563	979.11981	-377.33691	559.33844	1078.6072	-584.93909	116.11498	1138.3247	-548.34076	130.6212	1180.803
529	2.635	-504.54926	813.33136	241.51328	-413.7114	779.46637	273.84802	-497.12524	1055.3492	688.84338	-425.15506	988.51477	705.75891	-581.13824	1197.4921	1075.8177	-443.97467	909.39502	1265.3309	-426.52823	546.51306	977.73846	-376.50476	558.47229	1076.3682	-584.15924	115.40971	1140.46	-547.49255	129.98013	1182.0858
530	2.64	-509.81253	791.1485	247.41295	-416.54269	762.33942	279.70547	-503.01367	1047.4636	687.14532	-428.94415	984.27026	704.90051	-584.77856	1193.7361	1074.5427	-441.47766	909.77362	1264.1782	-426.37634	545.22656	976.26367	-375.56125	557.45319	1074.0847	-583.71277	114.00529	1141.696	-546.97809	129.1347	1183.1805
531	2.645	-515.33301	769.12476	253.95682	-420.46524	745.02258	284.74649	-509.73981	1039.1332	685.85358	-432.73837	979.06158	703.37891	-588.58215	1189.822	1073.0924	-439.29633	909.9361	1263.3074	-426.91199	543.7699	975.37964	-374.54901	556.25861	1072.1855	-583.49335	112.48941	1142.8672	-546.81116	128.03473	1184.0254
532	2.65	-521.67944	747.06573	261.57684	-425.09232	727.27704	290.32468	-515.13904	1030.1919	684.34637	-436.35416	974.25635	702.11346	-592.10822	1185.9869	1071.5756	-437.44629	909.76575	1262.5276	-426.56863	542.15375	974.19641	-373.65305	554.77948	1070.4619	-584.82123	111.92331	1144.2035	-547.1839	126.73372	1184.7969
533	2.655	-527.72235	724.92352	269.1701	-429.37485	709.85248	296.31601	-520.55896	1020.8472	683.38422	-439.44211	969.12402	700.7663	-595.26587	1181.9537	1070.0502	-435.92093	909.30457	1262.0322	-427.23737	540.55762	973.70276	-372.9462	553.13806	1068.9449	-585.88257	110.24835	1144.861	-547.79706	125.23495	1185.4388
534	2.66	-534.88287	703.3811	278.0415	-434.78973	691.74683	302.12296	-526.81531	1011.6172	682.36676	-442.83359	963.30371	699.5072	-598.18573	1178.207	1068.5654	-434.55231	908.64709	1261.8042	-426.82602	538.52313	972.75793	-372.24164	551.27533	1067.994	-586.06726	108.0087	1145.9495	-548.78424	123.55056	1186.2145
535	2.665	-541.49286	681.67371	286.45789	-441.00107	673.5094	309.14359	-532.10565	1002.1069	681.62579	-446.74747	956.78088	698.25562	-601.0675	1174.1222	1067.1489	-433.43268	907.51306	1261.4969	-427.48288	536.77051	972.6283	-371.79172	549.17578	1067.4315	-587.60114	105.92113	1146.4805	-549.90521	121.71095	1186.8883
536	2.67	-548.95221	660.1239	295.85535	-447.45096	654.70074	314.87717	-536.74445	992.2547	681.10992	-450.61047	949.5799	697.12305	-604.79041	1170.3279	1065.3269	-432.40417	906.29993	1261.422	-428.0141	534.50378	972.42902	-371.52182	546.79016	1067.1261	-588.77777	104.01693	1147.4954	-551.29871	119.66289	1187.74
537	2.675	-555.77063	638.59576	304.93088	-454.49741	635.73651	321.45822	-541.6936	981.96667	681.25812	-454.38208	941.85022	696.25677	-607.16345	1166.2327	1064.1375	-431.41946	904.84064	1261.3318	-428.54178	532.19037	972.42596	-371.38901	544.19891	1067.2615	-590.08276	101.97426	1148.6426	-552.6076	117.38569	1188.672
538	2.68	-564.45691	617.83063	315.41772	-461.98889	616.38019	328.57098	-546.51245	972.22339	681.4433	-458.03571	933.33698	695.63708	-609.34222	1162.1399	1063.1447	-430.43137	903.01526	1260.9614	-429.30136	529.40833	972.27637	-371.4657	541.29956	1067.6216	-591.57983	99.372658	1149.7357	-553.98602	114.98186	1189.6792
